<svg xmlns="http://www.w3.org/2000/svg" width="1000" height="500" viewBox="0 0 1000 500" role="img" aria-label="Warp specialization timeline">
  <defs>
    <marker id="arrow" markerWidth="11" markerHeight="11" refX="9" refY="3" orient="auto" markerUnits="strokeWidth">
      <path d="M0,0 L0,6 L9,3 z" fill="#57606a"/>
    </marker>
    <style>
      text { font-family: -apple-system, BlinkMacSystemFont, "Segoe UI", sans-serif; letter-spacing: 0; }
      .mono { font-family: ui-monospace, SFMono-Regular, Menlo, Consolas, monospace; }
    </style>
  </defs>
  <rect width="100%" height="100%" fill="#ffffff"/>
  <text x="500.0" y="38" text-anchor="middle" font-size="23" font-weight="780" fill="#24292f"><tspan x="500.0" dy="0.00em">Warp specialization timeline</tspan></text>
  <text x="500.0" y="66" text-anchor="middle" font-size="13" font-weight="520" fill="#5b6775"><tspan x="500.0" dy="0.00em">The speedup comes from hiding global-memory movement behind WGMMA and scale promotion.</tspan></text>
  <text x="500" y="92" text-anchor="middle" font-size="15" font-weight="720" fill="#24292f"><tspan x="500" dy="0.00em">TMA producer and two math warp groups share a ring buffer</tspan></text><text x="95" y="159" text-anchor="start" font-size="13" font-weight="700" fill="#24292f"><tspan x="95" dy="0.00em">TMA WG</tspan></text><rect x="190" y="135" width="132" height="48" rx="5" fill="#eaf3ff" stroke="#4f7bd9" stroke-width="1.8"/><text x="256" y="159" text-anchor="middle" font-size="12" font-weight="650" fill="#1f2d3d"><tspan x="256" dy="0.00em">TMA copy</tspan></text><rect x="370" y="135" width="132" height="48" rx="5" fill="#eaf3ff" stroke="#4f7bd9" stroke-width="1.8"/><text x="436" y="159" text-anchor="middle" font-size="12" font-weight="650" fill="#1f2d3d"><tspan x="436" dy="0.00em">WGMMA</tspan></text><rect x="550" y="135" width="132" height="48" rx="5" fill="#eaf3ff" stroke="#4f7bd9" stroke-width="1.8"/><text x="616" y="159" text-anchor="middle" font-size="12" font-weight="650" fill="#1f2d3d"><tspan x="616" dy="0.00em">promote</tspan></text><rect x="730" y="135" width="132" height="48" rx="5" fill="#eaf3ff" stroke="#4f7bd9" stroke-width="1.8"/><text x="796" y="159" text-anchor="middle" font-size="12" font-weight="650" fill="#1f2d3d"><tspan x="796" dy="0.00em">empty/full</tspan></text><text x="95" y="239" text-anchor="start" font-size="13" font-weight="700" fill="#24292f"><tspan x="95" dy="0.00em">Math WG0</tspan></text><rect x="190" y="215" width="132" height="48" rx="5" fill="#eef8ef" stroke="#5aa463" stroke-width="1.8"/><text x="256" y="239" text-anchor="middle" font-size="12" font-weight="650" fill="#1f3d24"><tspan x="256" dy="0.00em">wait full</tspan></text><rect x="370" y="215" width="132" height="48" rx="5" fill="#eef8ef" stroke="#5aa463" stroke-width="1.8"/><text x="436" y="239" text-anchor="middle" font-size="12" font-weight="650" fill="#1f3d24"><tspan x="436" dy="0.00em">WGMMA</tspan></text><rect x="550" y="215" width="132" height="48" rx="5" fill="#eef8ef" stroke="#5aa463" stroke-width="1.8"/><text x="616" y="239" text-anchor="middle" font-size="12" font-weight="650" fill="#1f3d24"><tspan x="616" dy="0.00em">promote</tspan></text><rect x="730" y="215" width="132" height="48" rx="5" fill="#eef8ef" stroke="#5aa463" stroke-width="1.8"/><text x="796" y="239" text-anchor="middle" font-size="12" font-weight="650" fill="#1f3d24"><tspan x="796" dy="0.00em">empty/full</tspan></text><text x="95" y="319" text-anchor="start" font-size="13" font-weight="700" fill="#24292f"><tspan x="95" dy="0.00em">Math WG1</tspan></text><rect x="190" y="295" width="132" height="48" rx="5" fill="#fff7df" stroke="#d8a500" stroke-width="1.8"/><text x="256" y="319" text-anchor="middle" font-size="12" font-weight="650" fill="#4a3a00"><tspan x="256" dy="0.00em">wait full</tspan></text><rect x="370" y="295" width="132" height="48" rx="5" fill="#fff7df" stroke="#d8a500" stroke-width="1.8"/><text x="436" y="319" text-anchor="middle" font-size="12" font-weight="650" fill="#4a3a00"><tspan x="436" dy="0.00em">WGMMA</tspan></text><rect x="550" y="295" width="132" height="48" rx="5" fill="#fff7df" stroke="#d8a500" stroke-width="1.8"/><text x="616" y="319" text-anchor="middle" font-size="12" font-weight="650" fill="#4a3a00"><tspan x="616" dy="0.00em">promote</tspan></text><rect x="730" y="295" width="132" height="48" rx="5" fill="#fff7df" stroke="#d8a500" stroke-width="1.8"/><text x="796" y="319" text-anchor="middle" font-size="12" font-weight="650" fill="#4a3a00"><tspan x="796" dy="0.00em">empty/full</tspan></text><path d="M330,378 L770,378" fill="none" stroke="#57606a" stroke-width="2" marker-end="url(#arrow)"/><text x="550.0" y="370.0" text-anchor="middle" font-size="12" font-weight="650" fill="#57606a"><tspan x="550.0" dy="0.00em">time</tspan></text><rect x="255" y="405" width="500" height="54" rx="8" fill="#f6f8fa" stroke="#d0d7de" stroke-width="2"/><text x="505.0" y="427.68" text-anchor="middle" font-size="15" font-weight="750" fill="#24292f"><tspan x="505.0" dy="0.00em">setmaxnreg shifts RF budget</tspan></text><text x="505.0" y="441.72" text-anchor="middle" font-size="12" font-weight="500" fill="#526170"><tspan x="505.0" dy="0.00em">TMA: 40 regs/thread, math WGs: 232 regs/thread on the common SM90 path</tspan></text>
</svg>
