<svg viewBox="0 0 1000 430" xmlns="http://www.w3.org/2000/svg">
<defs>
  <marker id="arrow" viewBox="0 0 10 10" refX="9" refY="5" markerWidth="7" markerHeight="7" orient="auto-start-reverse">
    <path d="M 0 0 L 10 5 L 0 10 z" fill="#24292f"/>
  </marker>
</defs>
<rect x="0" y="0" width="1000" height="430" fill="#ffffff"/>
<text x="500" y="38" text-anchor="middle" font-family="sans-serif" font-size="24" font-weight="700" fill="#24292f">Bandwidth sweep: the source curves are a trend, not six isolated plots</text>
<text x="500" y="64" text-anchor="middle" font-family="sans-serif" font-size="13" font-weight="400" fill="#57606a">Batch 1/2/8/32/64/128 curves all point to the same utilization story.</text>
<text x="158" y="105" text-anchor="middle" font-family="sans-serif" font-size="12" font-weight="700" fill="#24292f">batch 1</text>
<text x="298" y="105" text-anchor="middle" font-family="sans-serif" font-size="12" font-weight="700" fill="#24292f">batch 2</text>
<text x="438" y="105" text-anchor="middle" font-family="sans-serif" font-size="12" font-weight="700" fill="#24292f">batch 8</text>
<text x="578" y="105" text-anchor="middle" font-family="sans-serif" font-size="12" font-weight="700" fill="#24292f">batch 32</text>
<text x="718" y="105" text-anchor="middle" font-family="sans-serif" font-size="12" font-weight="700" fill="#24292f">batch 64</text>
<text x="858" y="105" text-anchor="middle" font-family="sans-serif" font-size="12" font-weight="700" fill="#24292f">batch 128</text>
<rect x="105" y="209" width="105" height="36" rx="4" fill="#f4faf4" stroke="#5fa55f" stroke-width="1.5"/>
<text x="157" y="265" text-anchor="middle" font-family="sans-serif" font-size="10" font-weight="700" fill="#5fa55f">FlashMLA</text>
<rect x="139" y="222.68" width="35" height="22.32" rx="4" fill="#fff8e7" stroke="#e0b300" stroke-width="1.3"/>
<text x="157" y="290" text-anchor="middle" font-family="sans-serif" font-size="10" font-weight="600" fill="#e0b300">infer</text>
<rect x="245" y="199" width="105" height="46" rx="4" fill="#f4faf4" stroke="#5fa55f" stroke-width="1.5"/>
<text x="297" y="265" text-anchor="middle" font-family="sans-serif" font-size="10" font-weight="700" fill="#5fa55f">FlashMLA</text>
<rect x="279" y="216.48" width="35" height="28.52" rx="4" fill="#fff8e7" stroke="#e0b300" stroke-width="1.3"/>
<text x="297" y="290" text-anchor="middle" font-family="sans-serif" font-size="10" font-weight="600" fill="#e0b300">infer</text>
<rect x="385" y="183" width="105" height="62" rx="4" fill="#f4faf4" stroke="#5fa55f" stroke-width="1.5"/>
<text x="437" y="265" text-anchor="middle" font-family="sans-serif" font-size="10" font-weight="700" fill="#5fa55f">FlashMLA</text>
<rect x="419" y="206.56" width="35" height="38.44" rx="4" fill="#fff8e7" stroke="#e0b300" stroke-width="1.3"/>
<text x="437" y="290" text-anchor="middle" font-family="sans-serif" font-size="10" font-weight="600" fill="#e0b300">infer</text>
<rect x="525" y="167" width="105" height="78" rx="4" fill="#f4faf4" stroke="#5fa55f" stroke-width="1.5"/>
<text x="577" y="265" text-anchor="middle" font-family="sans-serif" font-size="10" font-weight="700" fill="#5fa55f">FlashMLA</text>
<rect x="559" y="196.64" width="35" height="48.36" rx="4" fill="#fff8e7" stroke="#e0b300" stroke-width="1.3"/>
<text x="577" y="290" text-anchor="middle" font-family="sans-serif" font-size="10" font-weight="600" fill="#e0b300">infer</text>
<rect x="665" y="155" width="105" height="90" rx="4" fill="#f4faf4" stroke="#5fa55f" stroke-width="1.5"/>
<text x="717" y="265" text-anchor="middle" font-family="sans-serif" font-size="10" font-weight="700" fill="#5fa55f">FlashMLA</text>
<rect x="699" y="189.2" width="35" height="55.8" rx="4" fill="#fff8e7" stroke="#e0b300" stroke-width="1.3"/>
<text x="717" y="290" text-anchor="middle" font-family="sans-serif" font-size="10" font-weight="600" fill="#e0b300">infer</text>
<rect x="805" y="153" width="105" height="92" rx="4" fill="#f4faf4" stroke="#5fa55f" stroke-width="1.5"/>
<text x="857" y="265" text-anchor="middle" font-family="sans-serif" font-size="10" font-weight="700" fill="#5fa55f">FlashMLA</text>
<rect x="839" y="187.96" width="35" height="57.04" rx="4" fill="#fff8e7" stroke="#e0b300" stroke-width="1.3"/>
<text x="857" y="290" text-anchor="middle" font-family="sans-serif" font-size="10" font-weight="600" fill="#e0b300">infer</text>
<line x1="80" y1="245" x2="930" y2="245" stroke="#24292f" stroke-width="2"/>
<line x1="80" y1="245" x2="80" y2="125" stroke="#24292f" stroke-width="2"/>
<text x="70" y="120" text-anchor="end" font-family="sans-serif" font-size="12" font-weight="700" fill="#24292f">BW</text>
<rect x="170" y="340" width="660" height="62" rx="8" fill="#f6f8fa" stroke="#d0d7de" stroke-width="1.3"/>
<text x="500" y="365" text-anchor="middle" font-family="sans-serif" font-size="12" font-weight="700" fill="#24292f">六张性能曲线的共同读法：FlashMLA 随 batch/seq 增大更接近带宽平台，Triton/torch 路径明显偏低。</text>
<text x="500" y="389" text-anchor="middle" font-family="sans-serif" font-size="11" font-weight="500" fill="#57606a">真实数字因硬件和脚本而变，文章只保留趋势语义，不在图里硬编码旧截图数值。</text>
</svg>
