<svg viewBox="0 0 1000 395" xmlns="http://www.w3.org/2000/svg">
<defs>
  <marker id="arrow" viewBox="0 0 10 10" refX="9" refY="5" markerWidth="7" markerHeight="7" orient="auto-start-reverse">
    <path d="M 0 0 L 10 5 L 0 10 z" fill="#24292f"/>
  </marker>
</defs>
<rect x="0" y="0" width="1000" height="395" fill="#ffffff"/>
<text x="500" y="38" text-anchor="middle" font-family="sans-serif" font-size="24" font-weight="700" fill="#24292f">Prefill implementation trace: recover per-head tensors for long T</text>
<text x="500" y="64" text-anchor="middle" font-family="sans-serif" font-size="13" font-weight="400" fill="#57606a">The vLLM-style trace clarifies why prefill is not the same kernel path as decode.</text>
<rect x="70" y="112" width="155" height="70" rx="8" fill="#eef7ff" stroke="#4a6fd3" stroke-width="2"/>
<text x="147" y="138" text-anchor="middle" font-family="sans-serif" font-size="12" font-weight="700" fill="#24292f">hidden_states</text>
<text x="147" y="160" text-anchor="middle" font-family="sans-serif" font-size="11" font-weight="600" fill="#57606a">[B,T,H]</text>
<rect x="270" y="92" width="160" height="52" rx="8" fill="#fff8e7" stroke="#e0b300" stroke-width="2"/>
<text x="350" y="123" text-anchor="middle" font-family="sans-serif" font-size="12" font-weight="700" fill="#24292f">q_a -&gt; q_b</text>
<rect x="270" y="162" width="160" height="52" rx="8" fill="#fff8e7" stroke="#e0b300" stroke-width="2"/>
<text x="350" y="193" text-anchor="middle" font-family="sans-serif" font-size="12" font-weight="700" fill="#24292f">kv_a -&gt; kv_b</text>
<rect x="480" y="92" width="160" height="52" rx="8" fill="#f4faf4" stroke="#5fa55f" stroke-width="2"/>
<text x="560" y="123" text-anchor="middle" font-family="serif" font-size="13" font-weight="600" fill="#5fa55f">Q = [q^C ; q^R]</text>
<rect x="480" y="162" width="160" height="52" rx="8" fill="#f4faf4" stroke="#5fa55f" stroke-width="2"/>
<text x="560" y="193" text-anchor="middle" font-family="serif" font-size="13" font-weight="600" fill="#5fa55f">K,V per-head</text>
<rect x="700" y="125" width="190" height="70" rx="8" fill="#fbf0fb" stroke="#a33ea1" stroke-width="2"/>
<text x="795" y="152" text-anchor="middle" font-family="sans-serif" font-size="12" font-weight="700" fill="#24292f">MHA / FlashAttention</text>
<text x="795" y="174" text-anchor="middle" font-family="sans-serif" font-size="11" font-weight="600" fill="#57606a">full prompt T</text>
<line x1="225" y1="147" x2="270" y2="118" stroke="#24292f" stroke-width="2" marker-end="url(#arrow)"/>
<line x1="225" y1="147" x2="270" y2="188" stroke="#24292f" stroke-width="2" marker-end="url(#arrow)"/>
<line x1="430" y1="118" x2="480" y2="118" stroke="#24292f" stroke-width="2" marker-end="url(#arrow)"/>
<line x1="430" y1="188" x2="480" y2="188" stroke="#24292f" stroke-width="2" marker-end="url(#arrow)"/>
<line x1="640" y1="118" x2="700" y2="150" stroke="#24292f" stroke-width="2" marker-end="url(#arrow)"/>
<line x1="640" y1="188" x2="700" y2="170" stroke="#24292f" stroke-width="2" marker-end="url(#arrow)"/>
<rect x="260" y="292" width="480" height="70" rx="8" fill="#f6f8fa" stroke="#d0d7de" stroke-width="1.3"/>
<text x="500" y="318" text-anchor="middle" font-family="sans-serif" font-size="12" font-weight="700" fill="#24292f">V2-Lite trace 的 head_num=16 只是小模型例子；V3/R1 主模型把 head_num 放大到 128。</text>
<text x="500" y="343" text-anchor="middle" font-family="sans-serif" font-size="12" font-weight="500" fill="#57606a">关键语义不变：prefill 的长 T 阶段恢复 per-head K/V，cache 写入仍是 latent。</text>
</svg>
